<svg xmlns="http://www.w3.org/2000/svg" width="760" height="180" viewBox="0 0 760 180" fill="none" role="img" aria-labelledby="title desc">
  <title id="title">JerseyDor logo for dark backgrounds</title>
  <desc id="desc">Minimal JerseyDor horizontal wordmark with an abstract JD jersey rail icon.</desc>
  <defs>
    <linearGradient id="jdAccent" x1="28" y1="34" x2="122" y2="128" gradientUnits="userSpaceOnUse">
      <stop offset="0" stop-color="#6D7CFF"/>
      <stop offset="1" stop-color="#7A5CFF"/>
    </linearGradient>
  </defs>
  <g transform="translate(34 26)">
    <path d="M40 21H88L108 40L128 48L118 76L101 70V129H27V70L10 76L0 48L20 40L40 21Z" fill="#F5F5F2"/>
    <path d="M50 21C52 33 62 42 74 42C86 42 96 33 98 21H88C86 27 81 32 74 32C67 32 62 27 60 21H50Z" fill="#0B0B0F"/>
    <path d="M57 57V102C57 118 47 129 31 129" stroke="#0B0B0F" stroke-width="9" stroke-linecap="round"/>
    <path d="M78 57H92C109 57 120 69 120 88C120 107 109 119 92 119H78V57Z" stroke="#0B0B0F" stroke-width="9" stroke-linejoin="round"/>
    <path d="M24 103H116" stroke="url(#jdAccent)" stroke-width="6" stroke-linecap="round"/>
    <path d="M37 119H103" stroke="#6D7CFF" stroke-width="3" stroke-linecap="round"/>
  </g>
  <g transform="translate(202 50)">
    <text x="0" y="62" fill="#F5F5F2" font-family="Outfit, Inter, Arial, sans-serif" font-size="66" font-weight="800" letter-spacing="0">JerseyDor</text>
    <path d="M4 86H320" stroke="#6D7CFF" stroke-width="5" stroke-linecap="round"/>
    <text x="2" y="122" fill="#D4D4D8" font-family="Inter, Arial, sans-serif" font-size="17" font-weight="700" letter-spacing="0">premium retro football streetwear</text>
  </g>
</svg>
